<?xml version="1.0" encoding="UTF-8"?>
<svg width="18px" height="20px" viewBox="0 0 18 20" version="1.1" xmlns="http://www.w3.org/2000/svg" xmlns:xlink="http://www.w3.org/1999/xlink">
    <!-- Generator: Sketch 45.2 (43514) - http://www.bohemiancoding.com/sketch -->
    <title>notifications</title>
    <desc>Created with Sketch.</desc>
    <defs></defs>
    <g id="UI-of-the-day-#23" stroke="none" stroke-width="1" fill="none" fill-rule="evenodd">
        <g id="Book-page" transform="translate(-1420.000000, -56.000000)" fill-rule="nonzero" fill="#777274">
            <g id="header" transform="translate(100.000000, 16.000000)">
                <g id="menu-right" transform="translate(1275.000000, 0.000000)">
                    <g id="notifications" transform="translate(45.000000, 0.000000)">
                        <path d="M18,54.2352941 C18,52.9176471 16.9578947,51.8352941 15.6315789,51.7647059 L15.6315789,49.1529412 C15.6315789,46.1411765 13.6421053,43.6 10.8947368,42.7764706 L10.8947368,41.6470588 C10.8947368,40.7294118 10.1605263,40 9.23684211,40 L8.76315789,40 C7.83947368,40 7.10526316,40.7294118 7.10526316,41.6470588 L7.10526316,42.7764706 C4.35789474,43.6 2.36842105,46.1411765 2.36842105,49.1529412 L2.36842105,51.7647059 C1.04210526,51.8352941 0,52.9176471 0,54.2352941 C0,55.6 1.11315789,56.7058824 2.48684211,56.7058824 L6.51315789,56.7058824 L6.51315789,57.5294118 C6.51315789,58.8941176 7.62631579,60 9,60 C10.3736842,60 11.4868421,58.8941176 11.4868421,57.5294118 L11.4868421,56.7058824 L15.5131579,56.7058824 C16.8868421,56.7058824 18,55.6 18,54.2352941 Z M8.52631579,41.6470588 C8.52631579,41.5058824 8.62105263,41.4117647 8.76315789,41.4117647 L9.23684211,41.4117647 C9.37894737,41.4117647 9.47368421,41.5058824 9.47368421,41.6470588 L9.47368421,42.5176471 C9.30789474,42.5176471 9.16578947,42.4941176 9,42.4941176 C8.83421053,42.4941176 8.69210526,42.4941176 8.52631579,42.5176471 L8.52631579,41.6470588 Z M9,43.9058824 C11.8657895,43.9058824 14.2105263,46.2588235 14.2105263,49.1529412 L14.2105263,51.7647059 L3.78947368,51.7647059 L3.78947368,49.1529412 C3.78947368,46.2588235 6.13421053,43.9058824 9,43.9058824 Z M1.42105263,54.2352941 C1.42105263,53.6470588 1.89473684,53.1764706 2.48684211,53.1764706 L15.5131579,53.1764706 C16.1052632,53.1764706 16.5789474,53.6470588 16.5789474,54.2352941 C16.5789474,54.8235294 16.1052632,55.2941176 15.5131579,55.2941176 L2.48684211,55.2941176 C1.89473684,55.2941176 1.42105263,54.8235294 1.42105263,54.2352941 Z M10.0657895,57.5294118 C10.0657895,58.1176471 9.59210526,58.5882353 9,58.5882353 C8.40789474,58.5882353 7.93421053,58.1176471 7.93421053,57.5294118 L7.93421053,56.7058824 L10.0657895,56.7058824 L10.0657895,57.5294118 Z"></path>
                    </g>
                </g>
            </g>
        </g>
    </g>
</svg>